<?xml version="1.0" encoding="UTF-8" standalone="no"?>
<svg
   xmlns:dc="http://purl.org/dc/elements/1.1/"
   xmlns:cc="http://creativecommons.org/ns#"
   xmlns:rdf="http://www.w3.org/1999/02/22-rdf-syntax-ns#"
   xmlns:svg="http://www.w3.org/2000/svg"
   xmlns="http://www.w3.org/2000/svg"
   xmlns:sodipodi="http://sodipodi.sourceforge.net/DTD/sodipodi-0.dtd"
   xmlns:inkscape="http://www.inkscape.org/namespaces/inkscape"
   id="Layer_1"
   data-name="Layer 1"
   viewBox="0 0 663 512"
   width="663"
   height="512"
   version="1.1"
   sodipodi:docname="wwbuddy.svg"
   inkscape:version="0.92.3 (2405546, 2018-03-11)">
  <metadata
     id="metadata893">
    <rdf:RDF>
      <cc:Work
         rdf:about="">
        <dc:format>image/svg+xml</dc:format>
        <dc:type
           rdf:resource="http://purl.org/dc/dcmitype/StillImage" />
        <dc:title></dc:title>
      </cc:Work>
    </rdf:RDF>
  </metadata>
  <defs
     id="defs891" />
  <sodipodi:namedview
     pagecolor="#ffffff"
     bordercolor="#666666"
     borderopacity="1"
     objecttolerance="10"
     gridtolerance="10"
     guidetolerance="10"
     inkscape:pageopacity="0"
     inkscape:pageshadow="2"
     inkscape:window-width="1299"
     inkscape:window-height="713"
     id="namedview889"
     showgrid="false"
     inkscape:zoom="0.79212878"
     inkscape:cx="365.74642"
     inkscape:cy="219.32511"
     inkscape:window-x="67"
     inkscape:window-y="27"
     inkscape:window-maximized="1"
     inkscape:current-layer="Layer_1" />
  <path
     d="m 584.31978,252.21274 a 245.086,245.086 0 0 1 -9.21,66.77 l -7.03,0.71 c -0.57,0.05 -1.15,0.1 -1.71,0.12 l -5.94,0.27 a 41.177,41.177 0 0 0 -36.04,24.72 l -1.52,3.46 a 32.487,32.487 0 0 1 -29.74,19.43 h -25.27 a 11.7,11.7 0 0 1 -11.68,-10.57 l -1.01,-10.1 a 40.943,40.943 0 0 0 -18.66,-30.52 14.434,14.434 0 0 1 -6.63,-12.17 v -10.12 a 19.826,19.826 0 0 1 6.7,-14.85 l 43.16,-38.12 a 42.545,42.545 0 0 0 12.51,-44.11 43.345,43.345 0 0 0 -36.16,-30.43 l -4.36,-0.54 a 21.282,21.282 0 0 1 -13.43,-7.11 12.039,12.039 0 0 1 -1.47,-13.82 l 9.04,-15.46 a 311.66,311.66 0 0 1 39.3,-53.200003 l 9.75,-13.6 a 244.464,244.464 0 0 1 89.4,189.240003 z"
     style="fill:#d8ff33"
     id="path874"
     inkscape:connector-curvature="0" />
  <path
     d="m 568.07978,319.69274 7.03,-0.71 c -29.07,102.86 -123.63,178.23 -235.79,178.23 -135.31,0 -244.999994,-109.69 -244.999994,-245 q 0,-11.565 1.05,-22.86 l 2.96,0.28 3.340004,-0.66 a 38.754,38.754 0 0 1 40.96999,18.6 39.311,39.311 0 0 0 7.04,8.84 l 17.42,16.4 a 26.148,26.148 0 0 0 11.02,6.17 l 2.03,0.56 a 35.421,35.421 0 0 1 24.73,24.62 l 9.33,33.69 a 33.123,33.123 0 0 0 5.56,11.18 l 28.29,37.09 a 35.82,35.82 0 0 1 6.84,15.8 l 7.69,46.14 a 6.786,6.786 0 0 0 2.38,4.23 6.544,6.544 0 0 0 6.64,0.93 13.008,13.008 0 0 0 7.94,-10.83 46.814,46.814 0 0 1 10.82,-25.6 l 8.2,-9.85 a 17.084,17.084 0 0 0 3.2,-5.93 l 8.43,-27.32 a 40.733,40.733 0 0 1 14.12,-20.32 l 25.06,-19.24 a 8.947,8.947 0 0 0 3.46,-5.59 8.49,8.49 0 0 0 -1.93,-6.92 l -16.68,-19.63 c -1,-1.17 -1.95,-2.39 -2.84,-3.64 l -12.76,-17.77 c -7.05,-9.84 -18.33,-16.36 -30.44,-16.04 a 6.453,6.453 0 0 1 -3.46,-0.91 l -26.06,-15.64 a 25.363,25.363 0 0 0 -24.91,-0.61 l -13.73,7.36 a 26.993,26.993 0 0 1 -35.55,-9.35 l -13.34,-21.06 a 29.025,29.025 0 0 1 0.49,-31.79 32.676,32.676 0 0 1 31.31,-14.15 l 20.01,2.54 a 17.989,17.989 0 0 0 17.88,-8.57 31.612,31.612 0 0 1 31.34,-15.47 l 8.75,1.12 a 17.8,17.8 0 0 0 16.29,-6.77 l 7.71,-10 a 26.039,26.039 0 0 0 0.78,-30.84 l -16.63,-23.970003 a 76.842,76.842 0 0 0 -24.34,-22.55 76.5,76.5 0 0 1 -7.34,-4.87 l -14.01,-10.52 -17.74,-13.36 a 245.149,245.149 0 0 1 269.28,27.84 l -9.75,13.6 a 311.66,311.66 0 0 0 -39.3,53.200003 l -9.04,15.46 a 12.039,12.039 0 0 0 1.47,13.82 21.282,21.282 0 0 0 13.43,7.11 l 4.36,0.54 a 43.345,43.345 0 0 1 36.16,30.43 42.545,42.545 0 0 1 -12.51,44.11 l -43.16,38.12 a 19.826,19.826 0 0 0 -6.7,14.85 v 10.12 a 14.434,14.434 0 0 0 6.63,12.17 40.943,40.943 0 0 1 18.66,30.52 l 1.01,10.1 a 11.7,11.7 0 0 0 11.68,10.57 h 25.27 a 32.487,32.487 0 0 0 29.74,-19.43 l 1.52,-3.46 a 41.177,41.177 0 0 1 36.04,-24.72 l 5.94,-0.27 c 0.56,-0.02 1.14,-0.07 1.71,-0.12 z"
     style="fill:#55d8d8"
     id="path876"
     inkscape:connector-curvature="0" />
  <path
     d="m 350.90978,321.62274 a 8.49,8.49 0 0 1 1.93,6.92 8.947,8.947 0 0 1 -3.46,5.59 l -25.06,19.24 a 40.733,40.733 0 0 0 -14.12,20.32 l -8.43,27.32 a 17.084,17.084 0 0 1 -3.2,5.93 l -8.2,9.85 a 46.814,46.814 0 0 0 -10.82,25.6 13.008,13.008 0 0 1 -7.94,10.83 6.544,6.544 0 0 1 -6.64,-0.93 6.786,6.786 0 0 1 -2.38,-4.23 l -7.69,-46.14 a 35.82,35.82 0 0 0 -6.84,-15.8 l -28.29,-37.09 a 33.123,33.123 0 0 1 -5.56,-11.18 l -9.33,-33.69 a 35.421,35.421 0 0 0 -24.73,-24.62 l -2.03,-0.56 a 26.148,26.148 0 0 1 -11.02,-6.17 l -17.42,-16.4 a 39.311,39.311 0 0 1 -7.04,-8.84 38.754,38.754 0 0 0 -40.96999,-18.6 l -3.340004,0.66 -2.96,-0.28 A 245.088,245.088 0 0 1 225.63978,35.132737 l 17.74,13.36 14.01,10.52 a 76.5,76.5 0 0 0 7.34,4.87 76.842,76.842 0 0 1 24.34,22.55 l 16.63,23.970003 a 26.039,26.039 0 0 1 -0.78,30.84 l -7.71,10 a 17.8,17.8 0 0 1 -16.29,6.77 l -8.75,-1.12 a 31.612,31.612 0 0 0 -31.34,15.47 17.989,17.989 0 0 1 -17.88,8.57 l -20.01,-2.54 a 32.676,32.676 0 0 0 -31.31,14.15 29.025,29.025 0 0 0 -0.49,31.79 l 13.34,21.06 a 26.993,26.993 0 0 0 35.55,9.35 l 13.73,-7.36 a 25.363,25.363 0 0 1 24.91,0.61 l 26.06,15.64 a 6.453,6.453 0 0 0 3.46,0.91 c 12.11,-0.32 23.39,6.2 30.44,16.04 l 12.76,17.77 c 0.89,1.25 1.84,2.47 2.84,3.64 z"
     style="fill:#d8ff33"
     id="path878"
     inkscape:connector-curvature="0" />
  <path
     d="m 339.31978,7.212737 a 243.9,243.9 0 0 0 -113.68,27.92 l 17.74,13.36 14.01,10.52 a 76.571,76.571 0 0 0 7.151,4.752 l 1.1,-0.632 a 245.341,245.341 0 0 1 228.664,0.7 l 0.616,-0.86 a 243.877,243.877 0 0 0 -155.601,-55.76 z"
     style="fill:#6bf2ee"
     id="path880"
     inkscape:connector-curvature="0" />
  <path
     d="m 134.31978,280.21274 q 0,-11.565 1.05,-22.86 l 2.306,-16.508 a 38.657,38.657 0 0 0 -36.00599,-11.872 l -3.340004,0.66 -2.96,-0.28 q -1.035,11.295 -1.05,22.86 a 244.91,244.91 0 0 0 125.320994,213.81 244.436,244.436 0 0 1 -85.321,-185.81 z"
     style="fill:#6bf2ee"
     id="path882"
     inkscape:connector-curvature="0" />
  <path
     d="m 137.50078,240.65374 a 245.241,245.241 0 0 1 127,-176.913003 76.817,76.817 0 0 1 -7.111,-4.728 l -14.01,-10.52 -17.74,-13.36 A 245.088,245.088 0 0 0 95.369786,229.35274 l 2.96,0.28 3.340004,-0.66 a 38.657,38.657 0 0 1 35.83099,11.681 z"
     style="fill:#f5ff92"
     id="path884"
     inkscape:connector-curvature="0" />
  <circle
     style="opacity:1;fill:none;fill-opacity:1;fill-rule:nonzero;stroke:none;stroke-width:2;stroke-linecap:square;stroke-linejoin:round;stroke-miterlimit:4;stroke-dasharray:none;stroke-opacity:1"
     id="path930"
     cx="-545.60315"
     cy="-247.52092"
     transform="rotate(-140.7202)"
     r="362.01321" />
  <g
     aria-label="WWBuddy"
     transform="translate(87.107049,59.333787)"
     style="font-style:normal;font-variant:normal;font-weight:bold;font-stretch:normal;font-size:133.33334351px;line-height:1.25;font-family:'Comic Sans MS';-inkscape-font-specification:'Comic Sans MS Bold';letter-spacing:-2.32000089px;word-spacing:-3.04999924px;fill:#6bf2ee;fill-opacity:1;stroke:#284268;stroke-width:10;stroke-linecap:square;stroke-linejoin:round;stroke-miterlimit:4;stroke-dasharray:none;stroke-opacity:1"
     id="text948">
    <path
       d="m 30.014036,153.32286 q 0.858202,2.75925 2.208048,6.71891 1.566623,3.60958 4.416445,10.89541 3.27461,9.72825 8.781894,28.95121 5.565583,19.59808 8.690202,28.94286 2.324715,6.96066 3.149315,11.61212 1.107815,6.11024 -3.694117,10.11074 -2.851148,2.37529 -6.4439,2.74157 -4.201272,0.44955 -6.859989,-2.33495 -7.093185,-3.83541 -10.735469,-6.98682 -11.118654,-8.87074 -32.8974322,-27.07898 5.1247266,12.76272 8.0407075,23.89132 4.3989814,16.67208 8.3573157,24.98335 1.366961,0.72539 2.408756,1.9759 2.583653,3.10124 1.457747,7.34398 -1.025796,3.65091 -3.926964,6.06788 -3.6514689,3.04204 -7.5942921,3.19154 -4.309591,0.11611 -7.3683301,-3.35198 l -6.4262262,-4.56052 q -8.1514676,-6.42797 -24.8212396,-18.80883 -13.177548,-9.10443 -39.182923,-24.55411 -1.491976,-0.87546 -2.533771,-2.12596 -2.500309,-3.00121 -1.657897,-6.66882 0.717327,-3.30918 3.618494,-5.72615 3.80153,-3.16706 8.719432,-1.841 2.709016,0.70891 8.143467,3.97726 16.653425,10.02184 45.30868,31.90707 -4.124394,-13.08767 -11.015754,-29.80176 -5.649764,-13.59636 -7.341054,-19.89841 -4.082443,-15.07157 1.11965,-19.40543 4.901973,-4.08384 11.611763,-0.60692 3.225705,1.63425 9.8601509,7.46184 2.0086651,1.80079 9.676558,8.97057 8.2179751,7.72836 32.3890921,26.06195 -5.032477,-16.8222 -15.539612,-47.64085 -0.616589,-1.85896 -5.066567,-11.37064 -3.21666,-6.81074 -3.724442,-11.89561 -0.516061,-5.50165 3.485549,-8.8354 3.051228,-2.54198 6.635562,-2.30809 3.542662,0.18388 6.001299,3.13506 0.875108,1.05043 2.749852,6.86069 z"
       style="letter-spacing:-2.32000089px;word-spacing:-3.04999924px"
       id="path10954" />
    <path
       d="m 161.27449,99.090984 q -0.0471,2.889246 -0.002,7.072426 0.36008,3.91839 0.79017,11.7299 0.0703,10.26436 -0.70588,30.2456 -0.83802,20.35578 -0.79036,30.20901 0.0329,7.33852 -0.63747,12.01469 -0.85727,6.15041 -6.66891,8.44981 -3.45067,1.36527 -6.97793,0.59039 -4.13133,-0.88596 -5.78666,-4.36189 -5.53924,-5.86007 -8.0142,-9.99192 -7.78942,-11.90124 -22.78684,-36.00378 0.8794,13.72502 0.17139,25.20751 -1.03175,17.21176 0.13086,26.34379 1.07179,1.11627 1.67059,2.62972 1.48503,3.75335 -0.91043,7.4317 -2.1154,3.14746 -5.62661,4.53668 -4.41927,1.7485 -8.211321,0.6583 -4.130013,-1.23655 -5.951689,-5.48685 l -4.679074,-6.34043 q -5.734283,-8.65351 -17.699786,-25.62388 -9.672158,-12.76667 -29.546571,-35.56973 -1.143645,-1.29789 -1.742448,-2.81134 -1.437126,-3.63228 0.509298,-6.8529 1.715591,-2.91926 5.226795,-4.30848 4.600888,-1.82036 8.858033,0.97623 2.351774,1.52003 6.492584,6.32306 12.687218,14.72441 33.067531,44.46882 0.172379,-13.72108 -1.150275,-31.75168 -1.117609,-14.681 -0.754655,-21.19594 0.832241,-15.5925 7.128193,-18.08352 5.932725,-2.3473 11.219805,3.05242 2.5534,2.56049 7.03428,10.16959 1.34526,2.33834 6.38836,11.54538 5.39106,9.90954 22.62181,34.87883 0.4769,-17.55235 0.12757,-50.11103 -0.005,-1.95853 -1.25921,-12.3845 -0.92703,-7.474866 0.17975,-12.463729 1.22918,-5.387362 6.07222,-7.30353 3.69282,-1.461079 7.02452,-0.118719 3.30774,1.281822 4.72092,4.853564 0.50299,1.271298 0.468,7.376428 z"
       style="letter-spacing:-2.32000089px;word-spacing:-3.04999924px"
       id="path10956" />
    <path
       d="m 236.80999,173.28203 q -14.37165,7.45951 -37.37813,10.26646 -3.8775,0.47308 -7.37373,-2.3797 -3.43161,-2.86067 -3.88104,-6.54429 l -8.35777,-68.50245 q -0.73004,-4.37085 -1.39545,-8.749573 -0.80099,-4.952468 -0.70188,-8.440668 0.16359,-6.185131 10.41051,-8.747066 4.73803,-2.020986 16.11203,-3.408692 12.21411,-1.490206 24.35616,5.029986 14.23849,7.576151 15.91793,21.341263 0.90674,7.43187 -1.18461,12.8684 -1.62801,4.39619 -6.35167,9.76036 6.6392,2.27256 12.23512,7.82058 6.3289,6.18004 7.15679,12.96566 1.04866,8.59512 -7.38368,17.42877 -5.64573,5.87019 -12.18058,9.29096 z M 206.38128,94.289414 q -8.33662,1.017126 -10.0011,1.351377 l 1.73618,13.692609 1.59116,13.57912 q 5.9676,-0.007 8.90881,-0.62783 19.586,-3.96371 18.00118,-16.95333 -0.55981,-4.58837 -6.89645,-8.143993 -6.55416,-3.725845 -13.33978,-2.897953 z m 13.1356,44.767336 q -5.88088,0.71751 -17.63319,1.69226 l 2.94888,24.16973 q 11.04453,-1.93779 23.58472,-7.20623 10.97976,-4.61896 10.39319,-8.35144 -0.80099,-4.95246 -8.38282,-7.96264 -5.93621,-2.42392 -10.91078,-2.34168 z"
       style="letter-spacing:-2.32000089px;word-spacing:-3.04999924px"
       id="path10958" />
    <path
       d="m 328.02517,141.1582 q -0.36195,4.34694 -1.02636,13.1111 -0.66442,8.76415 -1.02636,13.11109 -0.11345,1.36247 -0.1457,4.10362 0.038,2.68168 -0.0754,4.04415 -0.30253,3.63326 -3.15707,5.74744 -2.79507,2.18446 -6.62297,1.86573 -5.38501,-0.44838 -7.44527,-5.51963 -8.5585,2.35786 -17.44701,1.61776 -9.21291,-0.7671 -15.18211,-5.18389 -6.69913,-5.06554 -7.34852,-13.7431 -1.17976,-16.4306 -0.11553,-29.21189 0.70228,-8.43435 3.55083,-19.10719 1.90804,-7.22336 9.3692,-6.60211 3.76302,0.31333 6.2232,2.93536 2.46559,2.55716 2.16307,6.19042 -0.23769,2.85471 -1.71869,8.87236 -1.41612,6.02306 -1.68083,9.20216 -0.76171,9.14803 -0.75042,16.0739 0.0816,6.86638 0.94153,11.44572 1.56257,0.84873 3.02239,1.36226 1.5247,0.51893 2.95205,0.63777 7.20164,0.59965 16.00351,-0.75801 0.41596,-4.99574 0.8805,-11.35935 0.50229,-7.60172 0.7778,-10.91058 1.10745,-13.30033 3.14508,-22.86476 1.61606,-7.63965 9.4665,-6.98598 3.8279,0.31873 6.35296,2.94616 2.52507,2.62744 2.02791,6.2445 -3.29095,24.6165 -3.13428,22.73499 z"
       style="letter-spacing:-2.32000089px;word-spacing:-3.04999924px"
       id="path10960" />
    <path
       d="m 398.83701,130.48389 q 6.96957,-21.09513 10.44251,-28.90177 3.19373,-7.074077 10.26198,-5.033977 3.6905,1.065186 5.25627,4.092057 1.56578,3.02688 0.57281,6.46718 -2.61782,9.06987 -9.23799,26.60671 -6.55761,17.5549 -9.17544,26.62477 -6.39111,22.143 -7.11892,30.06434 -0.10121,1.05498 -0.33592,1.86814 -0.99296,3.44029 -4.14494,4.96996 -3.13392,1.46712 -6.44912,0.51026 -4.62876,-1.33599 -5.68903,-6.11429 -4.99367,1.33691 -9.92096,1.26999 -4.94534,-0.004 -9.82431,-1.41259 -14.01138,-4.04409 -20.68719,-15.66085 -6.80929,-11.85858 -2.72909,-25.99506 4.85652,-16.82618 17.34316,-24.40286 12.50469,-7.63923 27.82964,-3.216 4.69131,1.35405 8.09295,3.42004 3.40164,2.066 5.51359,4.84395 z m -6.93802,19.34243 q -0.92678,-4.53648 -3.6823,-7.43242 -2.75552,-2.89593 -7.32173,-4.21388 -9.25752,-2.67199 -15.43893,1.37139 -6.16335,3.98083 -9.25058,14.67702 -1.94983,6.75549 1.66408,13.01622 3.61391,6.26073 10.2443,8.17446 4.81641,1.39015 7.64342,0.9864 1.90552,-0.26315 6.91013,-2.34229 1.31612,-0.56879 2.62385,-1.34329 0.74149,-3.03855 6.60776,-22.89361 z"
       style="letter-spacing:-2.32000089px;word-spacing:-3.04999924px"
       id="path10962" />
    <path
       d="m 480.73939,167.28117 q 11.24155,-19.16265 16.2755,-26.06657 4.60723,-6.24628 11.08991,-2.76822 3.38476,1.81598 4.28043,5.10405 0.89566,3.28808 -0.7972,6.44336 -4.463,8.31849 -14.61615,24.07543 -10.09578,15.78772 -14.55878,24.1062 -10.89588,20.30858 -13.26992,27.90077 -0.32036,1.01024 -0.72049,1.75603 -1.69287,3.15529 -5.09568,3.9894 -3.37203,0.77673 -6.41258,-0.85457 -4.24529,-2.27767 -4.27914,-7.17207 -5.16303,0.25913 -9.96654,-0.84039 -4.8343,-1.04214 -9.30907,-3.44293 -12.85062,-6.89457 -16.93977,-19.65365 -4.16892,-13.02353 2.78721,-25.9889 8.27964,-15.43222 22.07829,-20.21963 13.82944,-4.84477 27.88481,2.69616 4.30266,2.30845 7.19496,5.04233 2.89229,2.73389 4.37421,5.8932 z m -10.84286,17.45561 q 0.0459,-4.62996 -2.04047,-8.0397 -2.08639,-3.40974 -6.27432,-5.65663 -8.49059,-4.55534 -15.3829,-1.89929 -6.86154,2.59869 -12.12481,12.40876 -3.32416,6.19584 -1.10466,13.07559 2.2195,6.87975 8.3006,10.14236 4.4174,2.37 7.26618,2.56854 1.91831,0.14261 7.24781,-0.83991 1.40619,-0.27992 2.84734,-0.76272 1.36267,-2.81526 11.26523,-20.997 z"
       style="letter-spacing:-2.32000089px;word-spacing:-3.04999924px"
       id="path10964" />
    <path
       d="m 559.20959,238.84127 q -14.91428,6.80667 -46.97703,21.26973 -17.28185,7.7147 -27.80295,13.52216 -3.63492,2.22476 -10.97139,6.4492 -5.7191,3.19953 -10.31949,-0.63602 -2.85025,-2.37638 -3.45787,-6.01924 -0.60763,-3.64286 1.72706,-6.4431 3.87724,-4.6504 33.57254,-18.71392 3.54643,-15.43692 9.18893,-46.50284 0.38414,-2.90074 0.75998,-5.89318 0.56766,-3.42585 2.15191,-5.32602 2.2513,-2.70023 6.11081,-2.9577 3.85951,-0.25747 6.65975,2.07721 3.30028,2.7516 3.10759,6.74437 -0.77895,15.3709 -7.17064,42.2521 15.23118,-7.3901 18.42413,-8.88142 9.76223,-4.4906 17.87358,-7.30611 5.15193,-1.80761 8.90225,1.31921 2.80024,2.33468 3.41618,6.06924 0.61594,3.73456 -1.67706,6.48479 -1.20903,1.45013 -3.51828,2.49154 z"
       style="letter-spacing:-2.32000089px;word-spacing:-3.04999924px"
       id="path10966" />
  </g>
</svg>
